<svg width="23" height="22" viewBox="0 0 23 22" fill="none" xmlns="http://www.w3.org/2000/svg">
<path d="M22.2 1.36V20.24C22.2 20.6 21.96 20.84 21.6 20.84H17.12C16.76 20.84 16.56 20.6 16.52 20.24L16.4 18.76C15 20.32 13.12 21.4 10.64 21.4C5.08 21.4 0.959999 16.72 0.959999 10.88C0.959999 5.04 5.08 0.360001 10.64 0.360001C13 0.360001 14.96 1.48 16.4 3.12L16.52 1.44C16.56 1.08 16.76 0.840001 17.12 0.840001H21.6C21.96 0.760001 22.2 1 22.2 1.36ZM15.92 10.8C15.92 8.12 14 5.88 11.4 5.88C8.76 5.88 6.84 8 6.84 10.8C6.84 13.64 8.76 15.76 11.4 15.76C14 15.76 15.92 13.48 15.92 10.8Z" fill="#322F2E"/>
</svg>
