<svg width="19" height="22" viewBox="0 0 19 22" fill="none" xmlns="http://www.w3.org/2000/svg">
<path d="M14.8 14.12C15.12 13.84 15.4 13.84 15.72 14.12L18.68 16.96C18.92 17.2 18.96 17.52 18.72 17.84C16.84 20 14.04 21.4 10.84 21.4C5.04 21.4 0.559998 16.76 0.559998 10.88C0.559998 5 5.08 0.360001 10.84 0.360001C13.96 0.360001 16.72 1.76 18.6 3.92C18.84 4.2 18.8 4.52 18.56 4.8L15.56 7.6C15.28 7.88 15 7.84 14.68 7.56C13.52 6.56 12.36 6 11 6C8.32 6 6.43999 8.08 6.43999 10.84C6.43999 13.6 8.32 15.68 11 15.68C12.44 15.68 13.64 15.12 14.8 14.12Z" fill="#322F2E"/>
</svg>
