<svg width="16" height="21" viewBox="0 0 16 21" fill="none" xmlns="http://www.w3.org/2000/svg">
<path d="M15.08 2.24L13.72 5.76C13.56 6.24 13.2 6.32 12.72 6.2C12.32 6.08 11.8 5.88 11.04 5.88C8.48 5.88 6.96 7.76 6.96 10.24V20.24C6.96 20.6 6.72 20.84 6.36 20.84H1.44C1.08 20.84 0.839996 20.6 0.839996 20.24V1.36C0.839996 0.999999 1.08 0.759999 1.44 0.759999H6.16C6.52 0.759999 6.71999 0.999999 6.75999 1.36L6.91999 3.68C7.95999 1.72 9.64 0.279999 12.08 0.279999C13.28 0.279999 14.28 0.759999 14.88 1.32C15.2 1.64 15.2 1.96 15.08 2.24Z" fill="#322F2E"/>
</svg>
